# xmcd
#
# Track frame offsets: 
#        150
#        20469
#        42028
#        75846
#        106808
#        130950
#        150335
#        197182
#        224151
#
# Disc length: 3276 seconds
#
# Revision: 0
# Processed by: cddbd v1.5.2PL0 Copyright (c) Steve Scherf et al.
# Submitted via: ExactAudioCopy v1.0b3
#
DISCID=6c0cca09
DTITLE=John McVey - Road House Stomp
DYEAR=2007
DGENRE=Blues Rock
TTITLE0=I Gotta Mexican Black Bird
TTITLE1=Call My Job
TTITLE2=Gone To Texas
TTITLE3=44 Boogie
TTITLE4=Stumble In
TTITLE5=Sweet Little Upsetter
TTITLE6=Help Me
TTITLE7=Looking For A Woman
TTITLE8=Freddie King Goes Surfing
EXTD=
EXTT0=
EXTT1=
EXTT2=
EXTT3=
EXTT4=
EXTT5=
EXTT6=
EXTT7=
EXTT8=
PLAYORDER=
